<svg width="512" height="512" viewBox="0 0 512 512" fill="none" xmlns="http://www.w3.org/2000/svg">
  <defs>
    <linearGradient id="bg" x1="64" y1="40" x2="448" y2="472" gradientUnits="userSpaceOnUse">
      <stop stop-color="#151D34"/>
      <stop offset="1" stop-color="#080B14"/>
    </linearGradient>
    <linearGradient id="gradLeft" x1="132" y1="128" x2="256" y2="364" gradientUnits="userSpaceOnUse">
      <stop offset="0" stop-color="#B98CFF"/>
      <stop offset="0.52" stop-color="#8A5CFF"/>
      <stop offset="1" stop-color="#5B39FF"/>
    </linearGradient>
    <linearGradient id="gradRight" x1="256" y1="364" x2="382" y2="104" gradientUnits="userSpaceOnUse">
      <stop offset="0" stop-color="#277BFF"/>
      <stop offset="0.58" stop-color="#1DA5FF"/>
      <stop offset="1" stop-color="#22D7F6"/>
    </linearGradient>
  </defs>
  <rect x="24" y="24" width="464" height="464" rx="104" fill="url(#bg)"/>
  <g transform="translate(45 48) scale(.82)">
    <path d="M133.5 138C133.5 130.268 139.768 124 147.5 124H182.68C186.837 124 190.753 125.853 193.413 129.048L250.912 198.065C253.999 201.77 255.692 206.44 255.692 211.263V357.934C255.692 374.465 234.77 381.603 224.682 368.508L137.276 255.05C134.827 251.871 133.5 247.973 133.5 243.96V138Z" fill="url(#gradLeft)"/>
    <path d="M378.186 106.247C389.683 95.7222 408 103.874 408 119.46V153.813C408 157.805 406.687 161.685 404.259 164.855L286.121 319.109C275.939 332.402 254.692 325.201 254.692 308.458V219.215C254.692 213.33 257.175 207.719 261.531 203.736L378.186 106.247Z" fill="url(#gradRight)"/>
  </g>
</svg>
